<svg width="92" height="23" viewBox="0 0 92 23" fill="none" xmlns="http://www.w3.org/2000/svg">
<path d="M19.439 3.937V22H17.603L4.859 6.475V19.219L8.099 20.65L7.424 22H0.485V20.893L3.023 18.841V3.694L0.161 2.128L0.836 0.778H5.183L17.603 15.871V3.505L14.39 2.128L15.065 0.778H22.004V1.885L19.439 3.937ZM40.9793 22H24.3473V20.893L26.8853 18.895V2.992L24.0233 2.128L24.6983 0.778H33.4463V1.885L30.8813 3.883V20.434H37.4963L41.5463 14.521L42.6263 14.926V22.486L40.9793 22ZM72.085 22H63.337V20.893L65.875 18.895V4.747L58.855 22H57.046L50.026 4.639V19.327L52.915 20.65L52.24 22H45.652V20.893L48.19 18.895V3.505L45.328 2.128L46.003 0.778H52.537L59.044 16.978L65.524 0.778H72.409V1.885L69.844 3.883V19.759L72.76 20.65L72.085 22ZM87.0318 17.356C87.0318 16.798 86.8068 16.276 86.3568 15.79C85.9248 15.304 85.3848 14.863 84.7368 14.467C84.0888 14.053 83.1888 13.54 82.0368 12.928C80.6868 12.208 79.5978 11.587 78.7698 11.065C77.9418 10.525 77.2308 9.904 76.6368 9.202C76.0608 8.482 75.7728 7.69 75.7728 6.826C75.7728 5.926 76.1598 4.963 76.9338 3.937C77.7258 2.893 78.6888 2.02 79.8228 1.318C80.9568 0.597999 82.0008 0.237999 82.9548 0.237999C84.1068 0.237999 85.4478 0.372999 86.9778 0.643C88.5258 0.913 89.6508 1.201 90.3528 1.507V7.015H88.7328C87.9048 5.557 86.9868 4.423 85.9788 3.613C84.9888 2.803 83.9448 2.398 82.8468 2.398C81.9288 2.398 81.2088 2.686 80.6868 3.262C80.1648 3.82 79.9038 4.549 79.9038 5.449C79.9038 6.043 80.1288 6.601 80.5788 7.123C81.0288 7.627 81.5868 8.086 82.2528 8.5C82.9368 8.914 83.8548 9.418 85.0068 10.012C86.3208 10.696 87.3918 11.299 88.2198 11.821C89.0478 12.343 89.7408 12.955 90.2988 13.657C90.8748 14.359 91.1628 15.133 91.1628 15.979C91.1628 16.879 90.7398 17.851 89.8938 18.895C89.0658 19.921 88.0488 20.794 86.8428 21.514C85.6368 22.216 84.5388 22.567 83.5488 22.567C82.3428 22.567 80.9028 22.432 79.2288 22.162C77.5728 21.892 76.3758 21.604 75.6378 21.298V15.79H77.2848C78.1488 17.248 79.1388 18.382 80.2548 19.192C81.3708 20.002 82.5138 20.407 83.6838 20.407C84.6918 20.407 85.5018 20.11 86.1138 19.516C86.7258 18.904 87.0318 18.184 87.0318 17.356Z" fill="black"/>
</svg>
